<svg xmlns="http://www.w3.org/2000/svg" viewBox="0.144 4.754 107 20.09">
  <path d="M14.799 21.139l-4.302 -8.933l-4.343 8.933l-6.01 -15.582l3.499 0l2.902 7.801l3.952 -8.192l3.952 8.192l2.964 -7.801l3.458 0zM25.523 7.585q-0.494 0.484 -1.194 0.484q-0.72 0 -1.225 -0.484t-0.504 -1.184q0 -0.679 0.504 -1.163t1.225 -0.484q0.7 0 1.194 0.484t0.494 1.163q0 0.7 -0.494 1.184zM22.786 9.283l3.087 0l0 11.3l-3.087 0l0 -11.3zM37.503 19.451q-0.391 0.535 -1.348 0.957t-2.089 0.422q-1.75 0 -3.036 -0.782t-1.966 -2.13t-0.679 -2.995t0.679 -2.995t1.966 -2.13t3.036 -0.782q1.173 0 2.069 0.401t1.369 1.019l0 -5.413l3.046 0l0 15.561l-3.046 0l0 -1.132zM36.782 12.607q-0.844 -0.895 -2.264 -0.895q-1.441 0 -2.274 0.895t-0.834 2.316q0 1.379 0.854 2.285t2.254 0.906q1.441 0 2.274 -0.854t0.834 -2.336q0 -1.42 -0.844 -2.316zM53.712 23.434q-1.513 1.41 -4.209 1.41q-3.232 0 -5.413 -1.708l1.503 -2.182q0.7 0.556 1.657 0.906t2.027 0.35q2.902 0 2.902 -2.635l0 -0.185q-1.235 1.009 -3.17 1.009q-1.791 0 -3.149 -0.751t-2.079 -2.048t-0.72 -2.861q0 -1.585 0.72 -2.871t2.069 -2.048t3.16 -0.762q1.935 0 3.17 1.009l0 -0.803l3.046 0l0 10.312q0 2.449 -1.513 3.859zM50.769 17.403q0.71 -0.401 1.122 -1.111t0.412 -1.554q0 -0.864 -0.412 -1.564t-1.122 -1.101t-1.575 -0.401q-1.4 0 -2.254 0.875t-0.854 2.192q0 1.358 0.834 2.213t2.274 0.854q0.864 0 1.575 -0.401zM61.163 20.316q-1.41 -0.556 -2.419 -1.883t-1.009 -3.468t1.019 -3.458t2.439 -1.873t2.696 -0.556q1.482 0 2.82 0.659t2.192 1.935t0.895 3.026q0 0.535 -0.021 0.926t-0.041 0.494l-8.933 0q0.247 1.194 1.235 1.626t1.852 0.432q1.111 0 1.77 -0.401t1.132 -0.916l2.388 1.379q-1.935 2.635 -5.29 2.635q-1.317 0 -2.727 -0.556zM61.791 12.401q-0.803 0.628 -0.906 1.533l5.66 0q-0.062 -0.535 -0.412 -1.029t-0.937 -0.813t-1.328 -0.319q-1.276 0 -2.079 0.628zM76.097 16.549q0 0.72 0.247 1.204t1.153 0.484q0.412 0 0.782 -0.041l0 2.593q-0.741 0.082 -1.379 0.082q-1.317 0 -2.13 -0.216t-1.266 -0.834t-0.453 -1.77l0 -6.278l-1.379 0l0 -2.696l1.379 0l0 -3.026l3.046 0l0 3.026l2.264 0l0 2.696l-2.264 0l0 4.775zM80.09 19.081l1.605 -2.141q0.741 0.515 1.729 0.864t1.935 0.35q0.7 0 1.163 -0.288t0.463 -0.72t-0.525 -0.607t-1.019 -0.247t-0.638 -0.093q-1.235 -0.206 -2.13 -0.494t-1.626 -1.029t-0.731 -2.038q0 -2.141 1.554 -2.861t3.118 -0.72q1.338 0 2.47 0.391t2.244 1.235l-1.605 2.099q-0.803 -0.473 -1.585 -0.762t-1.626 -0.288q-0.515 0 -0.998 0.226t-0.484 0.617q0 0.494 0.669 0.7t1.472 0.309q1.441 0.247 2.305 0.515t1.533 0.998t0.669 2.069q0 1.77 -1.214 2.727t-3.437 0.957q-3.087 0 -5.31 -1.77zM91.205 5.558l4.096 0l3.89 5.187l3.89 -5.187l4.055 0l-5.907 7.575l5.804 7.451l-4.075 0l-3.767 -5.002l-3.767 5.002l-4.096 0l5.825 -7.451z" fill="#000000"/>
</svg>